<svg width="5" height="27" viewBox="0 0 5 27" fill="none" xmlns="http://www.w3.org/2000/svg">
<path d="M4.09961 18.7754H1.16406L0.935547 0.40625H4.3457L4.09961 18.7754ZM0.8125 24.3652C0.8125 23.8379 0.970703 23.3984 1.28711 23.0469C1.61523 22.6836 2.0957 22.502 2.72852 22.502C3.36133 22.502 3.8418 22.6836 4.16992 23.0469C4.49805 23.3984 4.66211 23.8379 4.66211 24.3652C4.66211 24.8926 4.49805 25.332 4.16992 25.6836C3.8418 26.0234 3.36133 26.1934 2.72852 26.1934C2.0957 26.1934 1.61523 26.0234 1.28711 25.6836C0.970703 25.332 0.8125 24.8926 0.8125 24.3652Z" fill="#F55E62"/>
</svg>
